<svg width="1267" height="1325" viewBox="0 0 1267 1325" fill="none" xmlns="http://www.w3.org/2000/svg">
<g id="astro">
<g id="Group 1">
<g id="galaxy 1">
<path id="Vector" d="M789.424 172.907C781.443 179.407 776.275 188.623 774.961 198.699C773.647 208.776 776.284 218.965 782.341 227.216C796.506 251.461 850.189 248.552 847.357 206.435C844.524 164.318 806.279 157.114 789.424 172.907ZM830.926 205.188C831.119 209.334 829.917 213.428 827.504 216.843C825.091 220.258 821.601 222.804 817.567 224.093C813.533 225.382 809.178 225.342 805.17 223.98C801.161 222.617 797.72 220.007 795.373 216.548C792.1 212.025 790.69 206.46 791.425 200.965C792.16 195.47 794.986 190.448 799.339 186.9C808.404 178.311 829.226 182.19 830.926 205.188ZM410.523 421.73C413.497 421.73 424.687 425.748 431.203 420.483C437.719 415.218 433.611 415.357 434.744 399.148C439.305 367.611 448.018 336.783 460.665 307.432C474.83 277.923 530.355 213.362 607.693 178.034C685.031 142.705 776.534 141.735 860.246 161.963C943.959 182.19 1031.5 253.678 1075.41 323.503C1119.32 393.329 1081.92 530.209 1057.13 585.072C1032.35 639.935 919.596 703.941 834.609 707.405C799.305 708.186 764.283 701.109 732.186 686.709C700.09 672.308 671.76 650.961 649.337 624.279C621.008 586.734 594.945 493.218 630.356 430.32C642.674 409.254 660.471 391.75 681.939 379.584C703.408 367.418 727.784 361.023 752.596 361.048C777.384 359.247 797.356 382.384 802.738 384.185C805.188 384.138 807.596 383.56 809.79 382.494C811.984 381.427 813.909 379.898 815.426 378.017C816.943 376.135 818.015 373.948 818.564 371.613C819.113 369.278 819.127 366.853 818.603 364.512C815.77 351.766 767.327 314.914 667.042 361.602C566.757 408.291 579.647 503.609 585.313 545.864C590.979 588.12 614.775 701.032 762.369 727.632C813.474 737.236 866.231 734.068 915.751 718.424C965.272 702.779 1009.95 675.163 1045.66 638.133C1077.53 602.389 1124.84 541.154 1123 421.73C1121.16 302.306 1082.77 265.87 984.752 189.671C886.734 113.473 729.791 108.208 644.804 137.164C559.817 166.119 452.166 239.269 426.529 308.541C400.891 377.812 407.548 421.73 410.523 421.73ZM451.317 541.154C445.368 516.355 423.837 504.994 404.007 514.692C384.177 524.39 387.01 546.972 399.333 567.2C411.656 587.427 457.124 565.953 451.317 541.154ZM409.673 555.424C403.441 545.171 401.599 533.672 412.081 528.546C414.583 527.425 417.324 526.909 420.073 527.043C422.822 527.176 425.498 527.956 427.874 529.315C430.25 530.674 432.256 532.572 433.723 534.85C435.19 537.128 436.075 539.718 436.302 542.401C439.277 554.869 416.047 565.814 409.673 555.424ZM846.648 501.392C857.98 422.284 781.775 419.652 750.471 426.856C673.841 444.728 682.623 518.156 712.085 546.418C741.548 574.681 835.458 581.054 846.648 501.392ZM757.554 536.582C748.454 534.825 740.192 530.205 734.028 523.426C727.865 516.646 724.138 508.081 723.417 499.037C720.888 488.169 722.807 476.766 728.763 467.264C734.718 457.763 744.238 450.917 755.287 448.192C768.46 443.204 803.022 446.529 814.778 462.046C826.535 477.563 820.161 507.626 820.161 507.626C820.161 507.626 813.078 495.573 811.237 495.573C809.396 495.573 801.888 497.928 802.455 500.145C805.845 507.182 808.411 514.572 810.104 522.173C808.971 524.944 801.322 533.672 799.481 531.317C797.639 528.962 784.183 492.664 780.642 492.11C777.101 491.555 769.452 492.11 770.018 495.019C770.585 497.928 789.99 534.781 787.157 537.69C784.324 540.599 776.534 542.955 774.693 538.798C772.851 534.642 760.528 501.946 758.828 501.392C757.129 500.838 745.797 504.163 746.93 508.319C748.063 512.475 759.961 536.028 757.554 536.582ZM840.274 763.376C820.161 775.014 813.645 798.012 824.268 826.413C834.892 854.814 897.499 859.802 906.281 816.022C908.222 807.582 907.72 798.779 904.831 790.602C901.942 782.426 896.78 775.198 889.925 769.731C883.071 764.263 874.794 760.773 866.023 759.65C857.253 758.528 848.337 759.818 840.274 763.376ZM891.267 811.45C885.601 839.159 845.515 836.249 838.716 818.1C831.917 799.951 836.025 785.266 848.915 777.784C854.076 775.479 859.794 774.631 865.422 775.334C871.051 776.037 876.366 778.265 880.77 781.765C885.173 785.265 888.489 789.899 890.344 795.144C892.198 800.389 892.518 806.037 891.267 811.45ZM672.566 560.273C651.886 570.109 655.427 592.553 667.892 612.78C680.357 633.007 725.683 611.672 719.876 586.734C714.068 561.796 692.963 550.575 672.566 560.273ZM678.232 601.004C672 590.752 670.158 579.253 680.64 574.265C683.139 573.11 685.888 572.567 688.649 572.685C691.411 572.804 694.101 573.579 696.487 574.943C698.873 576.308 700.883 578.221 702.342 580.517C703.801 582.813 704.666 585.423 704.862 588.12C707.836 600.45 684.606 611.395 678.799 601.004H678.232ZM1026.68 351.627C1026.68 325.581 998.35 307.848 981.92 319.763C978.257 322.115 975.131 325.182 972.734 328.769C970.338 332.357 968.724 336.39 967.993 340.615C967.262 344.841 967.43 349.168 968.485 353.328C969.541 357.487 971.462 361.389 974.129 364.789C986.594 381.83 1027.25 377.812 1026.68 351.904V351.627ZM989.568 332.647C997.642 326.69 1011.52 335.556 1011.81 348.441C1012.09 361.325 991.835 363.404 985.744 355.091C984.435 353.416 983.493 351.495 982.975 349.449C982.457 347.403 982.375 345.274 982.733 343.195C983.092 341.116 983.884 339.132 985.06 337.365C986.235 335.598 987.77 334.086 989.568 332.924V332.647ZM541.686 460.66C538.891 462.457 536.506 464.8 534.682 467.543C532.858 470.286 531.635 473.368 531.09 476.596C530.544 479.824 530.688 483.127 531.512 486.298C532.336 489.469 533.823 492.438 535.879 495.019C545.227 507.765 576.248 504.578 575.823 484.905C575.398 465.232 554.009 451.655 541.686 460.66ZM564.491 482.55C564.491 492.387 549.335 493.911 544.519 487.538C543.46 486.244 542.692 484.745 542.266 483.141C541.84 481.537 541.765 479.863 542.045 478.228C542.326 476.593 542.957 475.035 543.895 473.655C544.834 472.275 546.06 471.104 547.494 470.22C553.726 465.925 564.208 472.714 564.491 482.55ZM1123.56 588.535C1105.86 596.017 1101.61 623.725 1110.53 642.151C1119.46 660.577 1166.06 656.005 1167.19 622.063C1168.32 588.12 1139.43 581.747 1123.56 588.535ZM1122.15 632.038C1119.4 627.108 1118.6 621.361 1119.91 615.892C1121.21 610.424 1124.53 605.618 1129.23 602.389C1132.09 601.2 1135.22 600.785 1138.3 601.19C1141.38 601.595 1144.29 602.804 1146.72 604.69C1149.16 606.575 1151.03 609.068 1152.14 611.906C1153.25 614.744 1153.56 617.822 1153.03 620.816C1152.74 639.657 1126.96 642.151 1122.15 632.038ZM1150.48 211.561C1147.5 169.998 1109.4 162.378 1092.69 178.034C1084.71 184.533 1079.54 193.749 1078.22 203.825C1076.91 213.902 1079.55 224.091 1085.6 232.342C1099.34 256.587 1153.03 253.678 1150.05 211.561H1150.48ZM1102.46 192.165C1111.67 183.575 1132.49 187.316 1134.05 210.453C1134.3 214.61 1133.15 218.734 1130.75 222.179C1128.36 225.624 1124.87 228.197 1120.82 229.495C1116.78 230.793 1112.4 230.743 1108.39 229.353C1104.38 227.963 1100.95 225.312 1098.64 221.813C1095.26 217.367 1093.74 211.836 1094.37 206.335C1095 200.834 1097.74 195.771 1102.03 192.165H1102.46ZM457.124 767.532C437.152 779.031 430.636 802.722 441.26 830.431C451.883 858.139 514.49 863.819 523.272 820.04C525.198 811.592 524.678 802.787 521.77 794.612C518.862 786.438 513.682 779.218 506.811 773.764C499.94 768.31 491.651 764.838 482.874 763.737C474.097 762.636 465.18 763.95 457.124 767.532ZM507.833 815.468C502.167 843.176 462.082 840.267 455.283 822.118C451.557 815.36 450.537 807.487 452.423 800.034C454.308 792.581 458.963 786.081 465.481 781.802C470.645 779.553 476.344 778.746 481.948 779.472C487.551 780.198 492.84 782.428 497.226 785.915C501.613 789.402 504.926 794.009 506.798 799.226C508.67 804.442 509.029 810.064 507.833 815.468ZM1120.59 723.614C1115.21 723.614 1111.1 733.451 1106.43 740.378C1101.75 747.305 1053.31 815.329 998.35 845.393C943.392 875.457 842.541 885.293 746.364 861.603C650.186 837.912 556.842 729.433 519.731 620.261C482.62 511.09 529.221 443.62 552.735 400.949C576.248 358.277 631.914 301.059 696.221 295.241C760.528 289.422 862.938 284.85 909.822 354.121C930.82 382.358 942.93 415.977 944.666 450.852C946.402 485.726 937.689 520.337 919.596 550.436C886.026 613.334 799.056 602.528 795.656 605.853C792.257 609.178 792.682 628.99 799.197 630.652C834.672 630.732 869.664 622.615 901.323 606.961C937.868 586.18 982.769 532.01 966.763 419.375C950.758 306.74 853.447 268.779 764.919 266.978C676.391 265.177 589.137 288.868 529.505 381.276C505.081 416.81 489.141 457.262 482.865 499.638C476.588 542.013 480.135 585.227 493.244 626.08C513.782 698.815 566.899 813.667 682.057 870.192C797.214 926.718 922.853 897.901 1003.73 870.192C1084.61 842.484 1141.27 739.131 1140.56 735.667C1139.85 732.204 1125.83 723.614 1120.59 723.614Z" fill="white"/>
</g>
</g>
<g id="astronaut-svgrepo-com 1" filter="url(#filter0_d_2_73)">
<g id="Group">
<path id="Vector_2" d="M690.969 479.656H678V520.344H690.969V479.656Z" fill="#E3E6E9"/>
<path id="Vector_3" d="M872.531 479.656H859.562V520.344H872.531V479.656Z" fill="#E3E6E9"/>
<path id="Vector_4" d="M827.141 405.062H807.688V418.625C807.688 419.562 807.642 420.486 807.554 421.399C807.354 423.456 806.927 425.441 806.313 427.336C806.199 427.687 806.079 428.036 805.951 428.382C805.784 428.836 805.604 429.284 805.414 429.727C805.155 430.329 804.882 430.922 804.584 431.499C804.522 431.618 804.457 431.733 804.394 431.851C803.747 433.059 803.015 434.208 802.205 435.293C801.959 435.624 801.705 435.948 801.445 436.266C801.01 436.795 800.562 437.312 800.09 437.806C800.076 437.821 800.06 437.835 800.046 437.85C799.518 438.4 798.966 438.924 798.394 439.425C797.897 439.86 797.383 440.273 796.855 440.669C796.229 441.14 795.583 441.582 794.916 441.994C794.534 442.23 794.146 442.454 793.752 442.67C793.165 442.992 792.568 443.293 791.956 443.567C791.784 443.644 791.609 443.716 791.434 443.789C788.833 444.885 786.025 445.559 783.084 445.715C782.642 445.738 782.197 445.75 781.75 445.75H775.266H768.781C754.456 445.75 742.844 433.606 742.844 418.625V405.062H723.391C698.365 405.062 678 426.36 678 452.531V466.094H690.969C690.969 458.603 696.776 452.531 703.938 452.531H710.422V466.094V479.656V520.344H723.391C723.391 516.595 726.291 513.562 729.875 513.562C733.459 513.562 736.359 516.595 736.359 520.344H749.328C749.328 516.595 752.228 513.562 755.812 513.562C759.397 513.562 762.297 516.595 762.297 520.344H775.266H840.109V479.656V466.094V452.531H846.594C853.756 452.531 859.562 458.603 859.562 466.094H872.531V452.531C872.531 426.36 852.166 405.062 827.141 405.062ZM807.688 486.438H794.719C791.135 486.438 788.234 483.405 788.234 479.656C788.234 475.908 791.135 472.875 794.719 472.875H807.688C811.272 472.875 814.172 475.908 814.172 479.656C814.172 483.405 811.272 486.438 807.688 486.438ZM807.688 466.094H794.719C791.135 466.094 788.234 463.061 788.234 459.312C788.234 455.564 791.135 452.531 794.719 452.531H807.688C811.272 452.531 814.172 455.564 814.172 459.312C814.172 463.061 811.272 466.094 807.688 466.094Z" fill="#E3E6E9"/>
<path id="Vector_5" d="M859.562 564.034C854.194 569.094 847.538 572.649 840.109 573.962V567.812V547.469H775.266H762.297V554.25C762.297 557.998 759.397 561.031 755.812 561.031C752.228 561.031 749.328 557.998 749.328 554.25V547.469H736.359V554.25C736.359 557.998 733.459 561.031 729.875 561.031C726.291 561.031 723.391 557.998 723.391 554.25V547.469H710.422V567.812V573.962C702.993 572.649 696.337 569.093 690.969 564.034V533.906H678C678 554.29 692.406 571.217 711.131 574.144L722.633 670.391C724.962 669.835 727.384 669.531 729.875 669.531H762.297C765.878 669.531 768.781 672.568 768.781 676.312V594.938C768.781 591.196 771.688 588.156 775.266 588.156C778.843 588.156 781.75 591.196 781.75 594.938V676.312C781.75 672.568 784.653 669.531 788.234 669.531H820.656C823.147 669.531 825.568 669.835 827.898 670.391L839.4 574.144C858.125 571.216 872.531 554.29 872.531 533.906H859.562V564.034Z" fill="#E3E6E9"/>
<path id="Vector_6" d="M846.594 540.688C846.594 540.921 846.582 541.153 846.561 541.381C846.527 541.726 846.462 542.061 846.38 542.389C846.339 542.552 846.295 542.713 846.244 542.871C845.604 544.837 844.127 546.393 842.256 547.081C841.583 547.328 840.862 547.469 840.109 547.469V567.812V573.962C847.538 572.649 854.194 569.093 859.562 564.034V533.906H846.594V540.688Z" fill="#B6B8BE"/>
<path id="Vector_7" d="M846.594 452.531H840.109V466.094H859.562C859.562 458.603 853.756 452.531 846.594 452.531Z" fill="#B6B8BE"/>
<path id="Vector_8" d="M859.562 479.656H840.109V520.344H859.562V479.656Z" fill="#B6B8BE"/>
<path id="Vector_9" d="M703.938 540.688V533.906H690.969V564.034C696.337 569.094 702.993 572.649 710.422 573.962V567.812V547.469C706.841 547.469 703.938 544.432 703.938 540.688Z" fill="#B6B8BE"/>
<path id="Vector_10" d="M710.422 479.656H690.969V520.344H710.422V479.656Z" fill="#B6B8BE"/>
<path id="Vector_11" d="M710.422 452.531H703.938C696.776 452.531 690.969 458.603 690.969 466.094H710.422V452.531Z" fill="#B6B8BE"/>
<path id="Vector_12" d="M729.875 384.719H775.266V283C739.513 283 710.422 313.423 710.422 350.812C710.422 364.289 714.196 377.315 721.346 388.487C721.898 389.35 722.629 390.047 723.46 390.557C723.9 387.26 726.6 384.719 729.875 384.719Z" fill="#98AFFF"/>
<path id="Vector_13" d="M820.656 384.719C823.932 384.719 826.633 387.262 827.072 390.562C827.903 390.052 828.634 389.357 829.186 388.493C836.329 377.328 840.109 364.295 840.109 350.812C840.109 313.423 811.018 283 775.266 283V384.719H820.656Z" fill="white"/>
<path id="Vector_14" d="M749.328 398.281H762.297H775.266V391.5V384.719H729.875C726.6 384.719 723.9 387.26 723.46 390.558C723.419 390.867 723.391 391.18 723.391 391.5V405.062H742.844C742.844 401.318 745.747 398.281 749.328 398.281Z" fill="#888693"/>
<path id="Vector_15" d="M807.688 452.531H794.719C791.135 452.531 788.234 455.564 788.234 459.312C788.234 463.061 791.135 466.094 794.719 466.094H807.688C811.272 466.094 814.172 463.061 814.172 459.312C814.172 455.564 811.272 452.531 807.688 452.531Z" fill="white"/>
<path id="Vector_16" d="M807.688 472.875H794.719C791.135 472.875 788.234 475.908 788.234 479.656C788.234 483.405 791.135 486.438 794.719 486.438H807.688C811.272 486.438 814.172 483.405 814.172 479.656C814.172 475.908 811.272 472.875 807.688 472.875Z" fill="#98AFFF"/>
<path id="Vector_17" d="M820.656 384.719H775.266V391.5V398.281H788.234H801.203C804.784 398.281 807.688 401.318 807.688 405.062H827.141V391.5C827.141 391.18 827.112 390.869 827.072 390.562C826.633 387.262 823.932 384.719 820.656 384.719Z" fill="#B6B8BE"/>
<path id="Vector_18" d="M762.297 411.844V398.281H749.328C745.747 398.281 742.844 401.318 742.844 405.062V418.625C742.844 433.606 754.456 445.75 768.781 445.75H775.266V425.406C768.103 425.406 762.297 419.334 762.297 411.844Z" fill="#5C546A"/>
<path id="Vector_19" d="M807.688 418.625C807.688 419.562 807.642 420.486 807.554 421.399C807.642 420.486 807.688 419.561 807.688 418.625Z" fill="#5C546A"/>
<path id="Vector_20" d="M791.956 443.566C791.785 443.644 791.61 443.715 791.435 443.788C791.609 443.715 791.784 443.644 791.956 443.566Z" fill="#5C546A"/>
<path id="Vector_21" d="M807.554 421.399C807.354 423.456 806.927 425.441 806.313 427.336C806.927 425.441 807.354 423.455 807.554 421.399Z" fill="#5C546A"/>
<path id="Vector_22" d="M804.584 431.499C804.522 431.618 804.457 431.733 804.394 431.851C804.457 431.733 804.523 431.617 804.584 431.499Z" fill="#5C546A"/>
<path id="Vector_23" d="M801.203 398.281H788.234V411.844C788.234 419.334 782.428 425.406 775.266 425.406V445.75H781.75C782.197 445.75 782.642 445.738 783.085 445.714C786.026 445.558 788.833 444.884 791.435 443.788C791.609 443.715 791.785 443.644 791.956 443.566C792.568 443.292 793.167 442.99 793.753 442.67C794.147 442.454 794.535 442.23 794.917 441.993C795.583 441.581 796.23 441.139 796.856 440.668C797.383 440.272 797.898 439.86 798.395 439.424C798.966 438.923 799.519 438.399 800.047 437.849C800.062 437.834 800.077 437.82 800.091 437.805C800.563 437.312 801.011 436.795 801.445 436.265C801.706 435.947 801.959 435.623 802.206 435.292C803.016 434.207 803.748 433.058 804.395 431.85C804.458 431.732 804.524 431.617 804.585 431.498C804.883 430.921 805.156 430.328 805.415 429.726C805.604 429.283 805.784 428.835 805.952 428.381C806.079 428.036 806.199 427.686 806.314 427.335C806.928 425.44 807.354 423.454 807.555 421.398C807.643 420.486 807.688 419.561 807.688 418.624V405.062C807.688 401.317 804.784 398.281 801.203 398.281Z" fill="#888693"/>
<path id="Vector_24" d="M775.266 425.406C782.428 425.406 788.234 419.334 788.234 411.844V398.281H775.266V405.062V425.406Z" fill="#98AFFF"/>
<path id="Vector_25" d="M762.297 411.844C762.297 419.334 768.103 425.406 775.266 425.406V405.062V398.281H762.297V411.844Z" fill="white"/>
<path id="Vector_26" d="M859.562 466.094H840.109V479.656H859.562V466.094Z" fill="white"/>
<path id="Vector_27" d="M710.422 466.094H690.969V479.656H710.422V466.094Z" fill="white"/>
<path id="Vector_28" d="M872.531 466.094H859.562V479.656H872.531V466.094Z" fill="#98AFFF"/>
<path id="Vector_29" d="M690.969 466.094H678V479.656H690.969V466.094Z" fill="#98AFFF"/>
<path id="Vector_30" d="M690.969 533.906H703.938V540.688C703.938 544.432 706.841 547.469 710.422 547.469H723.391V520.344H710.422H690.969V533.906Z" fill="#5C546A"/>
<path id="Vector_31" d="M690.969 520.344H678V533.906H690.969V520.344Z" fill="#888693"/>
<path id="Vector_32" d="M846.594 527.125V533.906H859.562V520.344H840.109C843.69 520.344 846.594 523.379 846.594 527.125Z" fill="#5C546A"/>
<path id="Vector_33" d="M872.531 520.344H859.562V533.906H872.531V520.344Z" fill="#888693"/>
<path id="Vector_34" d="M749.328 520.344H736.359V547.469H749.328V520.344Z" fill="#5C546A"/>
<path id="Vector_35" d="M775.266 520.344H762.297V547.469H775.266V520.344Z" fill="#5C546A"/>
<path id="Vector_36" d="M840.109 547.469C840.863 547.469 841.583 547.327 842.256 547.081C844.127 546.393 845.604 544.837 846.244 542.871C846.295 542.713 846.339 542.551 846.38 542.389C846.461 542.061 846.526 541.727 846.561 541.381C846.582 541.153 846.594 540.921 846.594 540.688V533.906V527.125C846.594 523.38 843.69 520.344 840.109 520.344H775.266V547.469H840.109Z" fill="#888693"/>
<path id="Vector_37" d="M723.391 554.25C723.391 557.998 726.291 561.031 729.875 561.031C733.459 561.031 736.359 557.998 736.359 554.25V547.469V520.344C736.359 516.595 733.459 513.562 729.875 513.562C726.291 513.562 723.391 516.595 723.391 520.344V547.469V554.25Z" fill="#98AFFF"/>
<path id="Vector_38" d="M749.328 554.25C749.328 557.998 752.228 561.031 755.812 561.031C759.397 561.031 762.297 557.998 762.297 554.25V547.469V520.344C762.297 516.595 759.397 513.562 755.812 513.562C752.228 513.562 749.328 516.595 749.328 520.344V547.469V554.25Z" fill="white"/>
<path id="Vector_39" d="M768.748 710.912C768.715 711.257 768.649 711.592 768.567 711.92C768.648 711.591 768.714 711.257 768.748 710.912Z" fill="#888693"/>
<path id="Vector_40" d="M762.297 669.531H729.875C727.384 669.531 724.963 669.835 722.633 670.391C708.215 673.832 697.453 687.316 697.453 703.438C697.453 701.115 697.681 698.847 698.106 696.656H768.781V676.312C768.781 672.567 765.878 669.531 762.297 669.531Z" fill="#888693"/>
<path id="Vector_41" d="M853.044 710.912C853.011 711.257 852.945 711.592 852.863 711.92C852.945 711.591 853.011 711.257 853.044 710.912Z" fill="#888693"/>
<path id="Vector_42" d="M788.234 669.531C784.653 669.531 781.75 672.568 781.75 676.312V696.656H852.425C852.85 698.847 853.078 701.115 853.078 703.438C853.078 687.317 842.316 673.833 827.898 670.391C825.568 669.835 823.147 669.531 820.656 669.531H788.234Z" fill="#888693"/>
<path id="Vector_43" d="M697.453 703.438V710.219C697.453 710.453 697.464 710.684 697.486 710.912C697.52 711.257 697.585 711.592 697.667 711.92C697.708 712.084 697.751 712.245 697.803 712.402C698.443 714.368 699.92 715.924 701.791 716.612C702.464 716.859 703.185 717 703.938 717H762.297C763.051 717 763.77 716.858 764.443 716.612C766.315 715.924 767.792 714.368 768.431 712.402C768.483 712.244 768.527 712.083 768.567 711.92C768.648 711.592 768.714 711.258 768.748 710.912C768.77 710.684 768.781 710.453 768.781 710.219V696.656H698.106C697.681 698.847 697.453 701.115 697.453 703.438Z" fill="#B6B8BE"/>
<path id="Vector_44" d="M781.75 696.656V710.219C781.75 710.453 781.761 710.684 781.783 710.912C781.816 711.257 781.882 711.592 781.964 711.92C782.005 712.084 782.048 712.245 782.1 712.402C782.74 714.368 784.216 715.924 786.088 716.612C786.761 716.859 787.481 717 788.234 717H846.594C847.348 717 848.067 716.858 848.74 716.612C850.612 715.924 852.088 714.368 852.728 712.402C852.78 712.244 852.824 712.083 852.864 711.92C852.945 711.592 853.011 711.258 853.045 710.912C853.067 710.684 853.078 710.453 853.078 710.219V703.438C853.078 701.115 852.85 698.847 852.425 696.656H781.75Z" fill="#B6B8BE"/>
</g>
</g>
</g>
<defs>
<filter id="filter0_d_2_73" x="627" y="280" width="435" height="454" filterUnits="userSpaceOnUse" color-interpolation-filters="sRGB">
<feFlood flood-opacity="0" result="BackgroundImageFix"/>
<feColorMatrix in="SourceAlpha" type="matrix" values="0 0 0 0 0 0 0 0 0 0 0 0 0 0 0 0 0 0 127 0" result="hardAlpha"/>
<feOffset dx="3" dy="7"/>
<feGaussianBlur stdDeviation="5"/>
<feColorMatrix type="matrix" values="0 0 0 0 0 0 0 0 0 0 0 0 0 0 0 0 0 0 0.25 0"/>
<feBlend mode="normal" in2="BackgroundImageFix" result="effect1_dropShadow_2_73"/>
<feBlend mode="normal" in="SourceGraphic" in2="effect1_dropShadow_2_73" result="shape"/>
</filter>
</defs>
</svg>
