{
  "accessors": [
    {
      "bufferView": 2,
      "componentType": 5126,
      "count": 3718,
      "max": [3.0, 3.0, 3.0],
      "min": [-3.0, -3.0, -3.0],
      "type": "VEC3"
    },
    {
      "bufferView": 2,
      "byteOffset": 44616,
      "componentType": 5126,
      "count": 3718,
      "max": [0.9830626249313354, 0.9830626845359802, 0.9830626845359802],
      "min": [-0.9830626845359802, -0.9830626845359802, -0.9830626845359802],
      "type": "VEC3"
    },
    {
      "bufferView": 1,
      "componentType": 5126,
      "count": 3718,
      "max": [0.875, 1.0],
      "min": [0.125, 0.0],
      "type": "VEC2"
    },
    {
      "bufferView": 0,
      "componentType": 5125,
      "count": 14340,
      "type": "SCALAR"
    },
    {
      "bufferView": 2,
      "byteOffset": 89232,
      "componentType": 5126,
      "count": 36,
      "max": [2.8000001907348633, -3.0, 2.8000001907348633],
      "min": [-2.799999952316284, -3.0, -2.799999952316284],
      "type": "VEC3"
    },
    {
      "bufferView": 2,
      "byteOffset": 89664,
      "componentType": 5126,
      "count": 36,
      "max": [0.0, -1.0, 0.0],
      "min": [0.0, -1.0, 0.0],
      "type": "VEC3"
    },
    {
      "bufferView": 1,
      "byteOffset": 29744,
      "componentType": 5126,
      "count": 36,
      "max": [0.6000000834465027, 0.9750000834465027],
      "min": [0.3999999761581421, 0.7749999165534973],
      "type": "VEC2"
    },
    {
      "bufferView": 0,
      "byteOffset": 57360,
      "componentType": 5125,
      "count": 54,
      "type": "SCALAR"
    },
    {
      "bufferView": 2,
      "byteOffset": 90096,
      "componentType": 5126,
      "count": 36,
      "max": [3.0, 2.8000001907348633, 2.8000001907348633],
      "min": [3.0, -2.799999952316284, -2.799999952316284],
      "type": "VEC3"
    },
    {
      "bufferView": 2,
      "byteOffset": 90528,
      "componentType": 5126,
      "count": 36,
      "max": [1.0, 0.0, 0.0],
      "min": [1.0, -1.862646143990787e-7, 0.0],
      "type": "VEC3"
    },
    {
      "bufferView": 1,
      "byteOffset": 30032,
      "componentType": 5126,
      "count": 36,
      "max": [0.6000000834465027, 0.7250000238418579],
      "min": [0.3999999761581421, 0.5249999165534973],
      "type": "VEC2"
    },
    {
      "bufferView": 0,
      "byteOffset": 57576,
      "componentType": 5125,
      "count": 54,
      "type": "SCALAR"
    },
    {
      "bufferView": 2,
      "byteOffset": 90960,
      "componentType": 5126,
      "count": 36,
      "max": [2.8000001907348633, 2.8000001907348633, -3.0],
      "min": [-2.799999952316284, -2.799999952316284, -3.0],
      "type": "VEC3"
    },
    {
      "bufferView": 2,
      "byteOffset": 91392,
      "componentType": 5126,
      "count": 36,
      "max": [0.0, 0.0, -1.0],
      "min": [0.0, 0.0, -1.0],
      "type": "VEC3"
    },
    {
      "bufferView": 1,
      "byteOffset": 30320,
      "componentType": 5126,
      "count": 36,
      "max": [0.3500000536441803, 0.7250000238418579],
      "min": [0.1499999761581421, 0.5249999165534973],
      "type": "VEC2"
    },
    {
      "bufferView": 0,
      "byteOffset": 57792,
      "componentType": 5125,
      "count": 54,
      "type": "SCALAR"
    },
    {
      "bufferView": 2,
      "byteOffset": 91824,
      "componentType": 5126,
      "count": 36,
      "max": [2.8000001907348633, 3.0, 2.8000001907348633],
      "min": [-2.799999952316284, 3.0, -2.799999952316284],
      "type": "VEC3"
    },
    {
      "bufferView": 2,
      "byteOffset": 92256,
      "componentType": 5126,
      "count": 36,
      "max": [0.0, 1.0, 0.0],
      "min": [0.0, 1.0, 0.0],
      "type": "VEC3"
    },
    {
      "bufferView": 1,
      "byteOffset": 30608,
      "componentType": 5126,
      "count": 36,
      "max": [0.6000000834465027, 0.4750000536441803],
      "min": [0.3999999463558197, 0.2750000059604645],
      "type": "VEC2"
    },
    {
      "bufferView": 0,
      "byteOffset": 58008,
      "componentType": 5125,
      "count": 54,
      "type": "SCALAR"
    },
    {
      "bufferView": 2,
      "byteOffset": 92688,
      "componentType": 5126,
      "count": 36,
      "max": [-3.0, 2.8000001907348633, 2.8000001907348633],
      "min": [-3.0, -2.799999952316284, -2.799999952316284],
      "type": "VEC3"
    },
    {
      "bufferView": 2,
      "byteOffset": 93120,
      "componentType": 5126,
      "count": 36,
      "max": [-1.0, 0.0, 0.0],
      "min": [-1.0, 0.0, 0.0],
      "type": "VEC3"
    },
    {
      "bufferView": 1,
      "byteOffset": 30896,
      "componentType": 5126,
      "count": 36,
      "max": [0.6000000834465027, 0.2250000387430191],
      "min": [0.3999999463558197, 0.02500000037252903],
      "type": "VEC2"
    },
    {
      "bufferView": 0,
      "byteOffset": 58224,
      "componentType": 5125,
      "count": 54,
      "type": "SCALAR"
    },
    {
      "bufferView": 2,
      "byteOffset": 93552,
      "componentType": 5126,
      "count": 36,
      "max": [2.8000001907348633, 2.8000001907348633, 3.0],
      "min": [-2.799999952316284, -2.799999952316284, 3.0],
      "type": "VEC3"
    },
    {
      "bufferView": 2,
      "byteOffset": 93984,
      "componentType": 5126,
      "count": 36,
      "max": [0.0, 0.0, 1.0],
      "min": [0.0, 0.0, 1.0],
      "type": "VEC3"
    },
    {
      "bufferView": 1,
      "byteOffset": 31184,
      "componentType": 5126,
      "count": 36,
      "max": [0.8500000834465027, 0.7250000238418579],
      "min": [0.6499999165534973, 0.5249999165534973],
      "type": "VEC2"
    },
    {
      "bufferView": 0,
      "byteOffset": 58440,
      "componentType": 5125,
      "count": 54,
      "type": "SCALAR"
    }
  ],
  "asset": {
    "extras": {
      "author": "Bernardo  Lucas (https://sketchfab.com/BernardoLucas)",
      "license": "CC-BY-4.0 (http://creativecommons.org/licenses/by/4.0/)",
      "source": "https://sketchfab.com/3d-models/rubik-cube-73297179cfd8488ca656ddaa707b7961",
      "title": "rubik cube"
    },
    "generator": "Sketchfab-14.55.0",
    "version": "2.0"
  },
  "bufferViews": [
    {
      "buffer": 0,
      "byteLength": 58656,
      "name": "floatBufferViews",
      "target": 34963
    },
    {
      "buffer": 0,
      "byteLength": 31472,
      "byteOffset": 58656,
      "byteStride": 8,
      "name": "floatBufferViews",
      "target": 34962
    },
    {
      "buffer": 0,
      "byteLength": 94416,
      "byteOffset": 90128,
      "byteStride": 12,
      "name": "floatBufferViews",
      "target": 34962
    }
  ],
  "buffers": [
    {
      "byteLength": 184544,
      "uri": "brain.bin"
    }
  ],
  "materials": [
    {
      "doubleSided": true,
      "name": "black",
      "pbrMetallicRoughness": {
        "baseColorFactor": [0.0, 0.0, 0.0, 1.0],
        "metallicFactor": 0.0,
        "roughnessFactor": 0.5
      }
    },
    {
      "doubleSided": true,
      "name": "green",
      "pbrMetallicRoughness": {
        "baseColorFactor": [
          0.014443999999999981, 0.3419140000000001, 0.1119319999999999, 1.0
        ],
        "metallicFactor": 0.0,
        "roughnessFactor": 0.4
      }
    },
    {
      "doubleSided": true,
      "name": "yellow",
      "pbrMetallicRoughness": {
        "baseColorFactor": [0.991102, 0.672443, 0.040915, 1.0],
        "metallicFactor": 0.0,
        "roughnessFactor": 0.4
      }
    },
    {
      "doubleSided": true,
      "name": "white",
      "pbrMetallicRoughness": {
        "baseColorFactor": [0.991102, 0.938686, 0.955973, 1.0],
        "metallicFactor": 0.0,
        "roughnessFactor": 0.4
      }
    },
    {
      "doubleSided": true,
      "name": "blue",
      "pbrMetallicRoughness": {
        "baseColorFactor": [
          0.01938200000000001, 0.10224200000000007, 0.5271149999999999, 1.0
        ],
        "metallicFactor": 0.0,
        "roughnessFactor": 0.4
      }
    },
    {
      "doubleSided": true,
      "name": "orange",
      "pbrMetallicRoughness": {
        "baseColorFactor": [1.0, 0.20863699999999996, 0.045186, 1.0],
        "metallicFactor": 0.0,
        "roughnessFactor": 0.4
      }
    },
    {
      "doubleSided": true,
      "name": "material",
      "pbrMetallicRoughness": {
        "baseColorFactor": [
          0.7681509999999995, 0.03434000000000001, 0.028426000000000003, 1.0
        ],
        "metallicFactor": 0.0,
        "roughnessFactor": 0.4
      }
    }
  ],
  "meshes": [
    {
      "name": "Cube_black_0",
      "primitives": [
        {
          "attributes": {
            "NORMAL": 1,
            "POSITION": 0,
            "TEXCOORD_0": 2
          },
          "indices": 3,
          "material": 0,
          "mode": 4
        }
      ]
    },
    {
      "name": "Cube.003_green_0",
      "primitives": [
        {
          "attributes": {
            "NORMAL": 5,
            "POSITION": 4,
            "TEXCOORD_0": 6
          },
          "indices": 7,
          "material": 1,
          "mode": 4
        }
      ]
    },
    {
      "name": "Cube.007_yellow_0",
      "primitives": [
        {
          "attributes": {
            "NORMAL": 9,
            "POSITION": 8,
            "TEXCOORD_0": 10
          },
          "indices": 11,
          "material": 2,
          "mode": 4
        }
      ]
    },
    {
      "name": "Cube.012_white_0",
      "primitives": [
        {
          "attributes": {
            "NORMAL": 13,
            "POSITION": 12,
            "TEXCOORD_0": 14
          },
          "indices": 15,
          "material": 3,
          "mode": 4
        }
      ]
    },
    {
      "name": "Cube.015_blue_0",
      "primitives": [
        {
          "attributes": {
            "NORMAL": 17,
            "POSITION": 16,
            "TEXCOORD_0": 18
          },
          "indices": 19,
          "material": 4,
          "mode": 4
        }
      ]
    },
    {
      "name": "Cube.024_orange_0",
      "primitives": [
        {
          "attributes": {
            "NORMAL": 21,
            "POSITION": 20,
            "TEXCOORD_0": 22
          },
          "indices": 23,
          "material": 5,
          "mode": 4
        }
      ]
    },
    {
      "name": "Cube.054_red_0",
      "primitives": [
        {
          "attributes": {
            "NORMAL": 25,
            "POSITION": 24,
            "TEXCOORD_0": 26
          },
          "indices": 27,
          "material": 6,
          "mode": 4
        }
      ]
    }
  ],
  "nodes": [
    {
      "children": [1],
      "matrix": [
        1.0, 0.0, 0.0, 0.0, 0.0, 2.220446049250313e-16, -1.0, 0.0, 0.0, 1.0,
        2.220446049250313e-16, 0.0, 0.0, 0.0, 0.0, 1.0
      ],
      "name": "Sketchfab_model"
    },
    {
      "children": [2],
      "matrix": [
        0.009999999776482582, 0.0, 0.0, 0.0, 0.0, 0.0, 0.009999999776482582,
        0.0, 0.0, -0.009999999776482582, 0.0, 0.0, 0.0, 0.0, 0.0, 1.0
      ],
      "name": "54c0870f2ae543dfb057c39143852d97.fbx"
    },
    {
      "children": [3, 5, 7, 9, 11, 13, 15],
      "name": "RootNode"
    },
    {
      "children": [4],
      "matrix": [
        100.0, 0.0, 0.0, 0.0, 0.0, -1.629206793918314e-5, -99.99999999999868,
        0.0, 0.0, 99.99999999999868, -1.629206793918314e-5, 0.0, 0.0, 0.0, 0.0,
        1.0
      ],
      "name": "Cube"
    },
    {
      "mesh": 0,
      "name": "Cube_black_0"
    },
    {
      "children": [6],
      "matrix": [
        100.0, 0.0, 0.0, 0.0, 0.0, -1.629206793918314e-5, -99.99999999999868,
        0.0, 0.0, 99.99999999999868, -1.629206793918314e-5, 0.0, 0.0, 0.0, 0.0,
        1.0
      ],
      "name": "Cube.003"
    },
    {
      "mesh": 1,
      "name": "Cube.003_green_0"
    },
    {
      "children": [8],
      "matrix": [
        100.0, 0.0, 0.0, 0.0, 0.0, -1.629206793918314e-5, -99.99999999999868,
        0.0, 0.0, 99.99999999999868, -1.629206793918314e-5, 0.0, 0.0, 0.0, 0.0,
        1.0
      ],
      "name": "Cube.007"
    },
    {
      "mesh": 2,
      "name": "Cube.007_yellow_0"
    },
    {
      "children": [10],
      "matrix": [
        100.0, 0.0, 0.0, 0.0, 0.0, -1.629206793918314e-5, -99.99999999999868,
        0.0, 0.0, 99.99999999999868, -1.629206793918314e-5, 0.0, 0.0, 0.0, 0.0,
        1.0
      ],
      "name": "Cube.012"
    },
    {
      "mesh": 3,
      "name": "Cube.012_white_0"
    },
    {
      "children": [12],
      "matrix": [
        100.0, 0.0, 0.0, 0.0, 0.0, -1.629206793918314e-5, -99.99999999999868,
        0.0, 0.0, 99.99999999999868, -1.629206793918314e-5, 0.0, 0.0, 0.0, 0.0,
        1.0
      ],
      "name": "Cube.015"
    },
    {
      "mesh": 4,
      "name": "Cube.015_blue_0"
    },
    {
      "children": [14],
      "matrix": [
        100.0, 0.0, 0.0, 0.0, 0.0, -1.629206793918314e-5, -99.99999999999868,
        0.0, 0.0, 99.99999999999868, -1.629206793918314e-5, 0.0, 0.0, 0.0, 0.0,
        1.0
      ],
      "name": "Cube.024"
    },
    {
      "mesh": 5,
      "name": "Cube.024_orange_0"
    },
    {
      "children": [16],
      "matrix": [
        100.0, 0.0, 0.0, 0.0, 0.0, -1.629206793918314e-5, -99.99999999999868,
        0.0, 0.0, 99.99999999999868, -1.629206793918314e-5, 0.0, 0.0, 0.0, 0.0,
        1.0
      ],
      "name": "Cube.054"
    },
    {
      "mesh": 6,
      "name": "Cube.054_red_0"
    }
  ],
  "scene": 0,
  "scenes": [
    {
      "name": "Sketchfab_Scene",
      "nodes": [0]
    }
  ]
}
