{
  "accessors": [
    {
      "bufferView": 2,
      "componentType": 5126,
      "count": 3138,
      "max": [32.500186920166016, 21.000694274902344, 0.0005288124666549265],
      "min": [-32.499813079833984, -20.999305725097656, -18.999465942382813],
      "type": "VEC3"
    },
    {
      "bufferView": 2,
      "byteOffset": 37656,
      "componentType": 5126,
      "count": 3138,
      "max": [1.0, 1.0, 1.0],
      "min": [-1.0, -1.0, -1.0],
      "type": "VEC3"
    },
    {
      "bufferView": 3,
      "componentType": 5126,
      "count": 3138,
      "max": [0.0, 0.0, 0.0, 0.0],
      "min": [0.0, 0.0, 0.0, 0.0],
      "type": "VEC4"
    },
    {
      "bufferView": 1,
      "componentType": 5126,
      "count": 3138,
      "max": [1.0200543403625488, 1.0000008344650269],
      "min": [-9.048970222473145, 0.0],
      "type": "VEC2"
    },
    {
      "bufferView": 0,
      "componentType": 5125,
      "count": 5520,
      "type": "SCALAR"
    },
    {
      "bufferView": 2,
      "byteOffset": 75312,
      "componentType": 5126,
      "count": 56,
      "max": [0.00018736295169219375, 20.000694274902344, -10.489474296569824],
      "min": [-25.999813079833984, 20.000694274902344, -11.489474296569824],
      "type": "VEC3"
    },
    {
      "bufferView": 2,
      "byteOffset": 75984,
      "componentType": 5126,
      "count": 56,
      "max": [0.0, 1.0, 0.0],
      "min": [0.0, 1.0, 0.0],
      "type": "VEC3"
    },
    {
      "bufferView": 3,
      "byteOffset": 50208,
      "componentType": 5126,
      "count": 56,
      "max": [0.0, 0.0, 0.0, 0.0],
      "min": [0.0, 0.0, 0.0, 0.0],
      "type": "VEC4"
    },
    {
      "bufferView": 1,
      "byteOffset": 25104,
      "componentType": 5126,
      "count": 56,
      "max": [1.0, 1.0],
      "min": [1.0, 1.0],
      "type": "VEC2"
    },
    {
      "bufferView": 0,
      "byteOffset": 22080,
      "componentType": 5125,
      "count": 156,
      "type": "SCALAR"
    },
    {
      "bufferView": 2,
      "byteOffset": 76656,
      "componentType": 5126,
      "count": 112,
      "max": [13.0, 13.0, 0.009999999776482582],
      "min": [-13.0, -13.0, 0.0],
      "type": "VEC3"
    },
    {
      "bufferView": 2,
      "byteOffset": 78000,
      "componentType": 5126,
      "count": 112,
      "max": [1.0, 1.0, 1.0],
      "min": [-1.0, -1.0, -1.0],
      "type": "VEC3"
    },
    {
      "bufferView": 0,
      "byteOffset": 22704,
      "componentType": 5125,
      "count": 324,
      "type": "SCALAR"
    },
    {
      "bufferView": 2,
      "byteOffset": 79344,
      "componentType": 5126,
      "count": 128,
      "max": [2.0, 0.5, 0.010000059381127357],
      "min": [-2.0, -0.5, -5.960464477539063e-8],
      "type": "VEC3"
    },
    {
      "bufferView": 2,
      "byteOffset": 80880,
      "componentType": 5126,
      "count": 128,
      "max": [1.0, 1.0, 1.0],
      "min": [-1.0, -1.0, -1.0],
      "type": "VEC3"
    },
    {
      "bufferView": 0,
      "byteOffset": 24000,
      "componentType": 5125,
      "count": 348,
      "type": "SCALAR"
    },
    {
      "bufferView": 2,
      "byteOffset": 82416,
      "componentType": 5126,
      "count": 144,
      "max": [32.5, 21.0, 0.0],
      "min": [-32.5, -21.0, -2.0],
      "type": "VEC3"
    },
    {
      "bufferView": 2,
      "byteOffset": 84144,
      "componentType": 5126,
      "count": 144,
      "max": [1.0, 0.9984489679336548, 1.0],
      "min": [-1.0, -0.9984556436538696, -1.0],
      "type": "VEC3"
    },
    {
      "bufferView": 1,
      "byteOffset": 25552,
      "componentType": 5126,
      "count": 144,
      "max": [1.0, 1.0],
      "min": [0.0, 0.0],
      "type": "VEC2"
    },
    {
      "bufferView": 0,
      "byteOffset": 25392,
      "componentType": 5125,
      "count": 396,
      "type": "SCALAR"
    },
    {
      "bufferView": 2,
      "byteOffset": 85872,
      "componentType": 5126,
      "count": 456,
      "max": [28.470155715942383, 5.548225402832031, 12.0],
      "min": [4.464323043823242, -2.5296900272369385, -12.0],
      "type": "VEC3"
    },
    {
      "bufferView": 2,
      "byteOffset": 91344,
      "componentType": 5126,
      "count": 456,
      "max": [0.9999956488609314, 0.9999956488609314, 1.0],
      "min": [-0.9999956488609314, -0.9999933242797852, -1.0],
      "type": "VEC3"
    },
    {
      "bufferView": 0,
      "byteOffset": 26976,
      "componentType": 5125,
      "count": 2082,
      "type": "SCALAR"
    },
    {
      "bufferView": 2,
      "byteOffset": 96816,
      "componentType": 5126,
      "count": 196,
      "max": [6.1301469802856445, 6.1301469802856445, 8.669337272644043],
      "min": [-6.1301469802856445, -6.1301469802856445, 6.1301469802856445],
      "type": "VEC3"
    },
    {
      "bufferView": 2,
      "byteOffset": 99168,
      "componentType": 5126,
      "count": 196,
      "max": [0.6343934535980225, 0.6343934535980225, 1.0],
      "min": [-0.6343934535980225, -0.6343935132026672, -1.0],
      "type": "VEC3"
    },
    {
      "bufferView": 1,
      "byteOffset": 26704,
      "componentType": 5126,
      "count": 196,
      "max": [1.000000238418579, 1.0],
      "min": [0.0, 0.75],
      "type": "VEC2"
    },
    {
      "bufferView": 0,
      "byteOffset": 35304,
      "componentType": 5125,
      "count": 762,
      "type": "SCALAR"
    },
    {
      "bufferView": 2,
      "byteOffset": 101520,
      "componentType": 5126,
      "count": 312,
      "max": [6.102027893066406, 5.9593424797058105, 6.88809871673584],
      "min": [-6.109542369842529, -6.239452838897705, 6.465337753295898],
      "type": "VEC3"
    },
    {
      "bufferView": 2,
      "byteOffset": 105264,
      "componentType": 5126,
      "count": 312,
      "max": [0.8965784907341003, 0.8970450758934021, 0.9999995827674866],
      "min": [-0.8969519734382629, -0.8970450758934021, 0.42521414160728455],
      "type": "VEC3"
    },
    {
      "bufferView": 1,
      "byteOffset": 28272,
      "componentType": 5126,
      "count": 312,
      "max": [25.962657928466797, -0.4527372121810913],
      "min": [6.998849391937256, -1.02118718624115],
      "type": "VEC2"
    },
    {
      "bufferView": 0,
      "byteOffset": 38352,
      "componentType": 5125,
      "count": 354,
      "type": "SCALAR"
    },
    {
      "bufferView": 2,
      "byteOffset": 109008,
      "componentType": 5126,
      "count": 168,
      "max": [32.5, 21.0000057220459, 0.0],
      "min": [-32.5, -21.0, -0.5],
      "type": "VEC3"
    },
    {
      "bufferView": 2,
      "byteOffset": 111024,
      "componentType": 5126,
      "count": 168,
      "max": [1.0, 1.0, 1.0],
      "min": [-1.0, -1.0, -1.0],
      "type": "VEC3"
    },
    {
      "bufferView": 1,
      "byteOffset": 30768,
      "componentType": 5126,
      "count": 168,
      "max": [1.0, 1.0],
      "min": [0.0, 0.0],
      "type": "VEC2"
    },
    {
      "bufferView": 0,
      "byteOffset": 39768,
      "componentType": 5125,
      "count": 456,
      "type": "SCALAR"
    },
    {
      "bufferView": 2,
      "byteOffset": 113040,
      "componentType": 5126,
      "count": 272,
      "max": [32.5, 21.0, 0.0],
      "min": [-32.5, -21.0, -0.5],
      "type": "VEC3"
    },
    {
      "bufferView": 2,
      "byteOffset": 116304,
      "componentType": 5126,
      "count": 272,
      "max": [1.0, 0.9984492063522339, 1.0],
      "min": [-1.0, -0.9984554648399353, -0.9983940124511719],
      "type": "VEC3"
    },
    {
      "bufferView": 0,
      "byteOffset": 41592,
      "componentType": 5125,
      "count": 1416,
      "type": "SCALAR"
    },
    {
      "bufferView": 2,
      "byteOffset": 119568,
      "componentType": 5126,
      "count": 24,
      "max": [24.3922119140625, 14.0, 0.5],
      "min": [-24.6077880859375, -14.0, 0.0],
      "type": "VEC3"
    },
    {
      "bufferView": 2,
      "byteOffset": 119856,
      "componentType": 5126,
      "count": 24,
      "max": [1.0, 1.0, 1.0],
      "min": [-1.0, -1.0, -1.0],
      "type": "VEC3"
    },
    {
      "bufferView": 0,
      "byteOffset": 47256,
      "componentType": 5125,
      "count": 36,
      "type": "SCALAR"
    },
    {
      "bufferView": 2,
      "byteOffset": 120144,
      "componentType": 5126,
      "count": 128,
      "max": [4.500227928161621, 8.479870796203613, 0.1166500672698021],
      "min": [-4.4998016357421875, -8.503838539123535, -0.5537307858467102],
      "type": "VEC3"
    },
    {
      "bufferView": 2,
      "byteOffset": 121680,
      "componentType": 5126,
      "count": 128,
      "max": [1.0, 1.0, 0.999995231628418],
      "min": [-1.0, -1.0, -0.999995231628418],
      "type": "VEC3"
    },
    {
      "bufferView": 1,
      "byteOffset": 32112,
      "componentType": 5126,
      "count": 128,
      "max": [1.0, 1.0],
      "min": [0.0, 0.0],
      "type": "VEC2"
    },
    {
      "bufferView": 0,
      "byteOffset": 47400,
      "componentType": 5125,
      "count": 348,
      "type": "SCALAR"
    },
    {
      "bufferView": 2,
      "byteOffset": 123216,
      "componentType": 5126,
      "count": 112,
      "max": [1.5, 1.5, 0.15000000596046448],
      "min": [-1.5, -1.5, 0.0],
      "type": "VEC3"
    },
    {
      "bufferView": 2,
      "byteOffset": 124560,
      "componentType": 5126,
      "count": 112,
      "max": [1.0, 1.0, 1.0],
      "min": [-1.0, -1.0, -1.0],
      "type": "VEC3"
    },
    {
      "bufferView": 0,
      "byteOffset": 48792,
      "componentType": 5125,
      "count": 324,
      "type": "SCALAR"
    },
    {
      "bufferView": 2,
      "byteOffset": 125904,
      "componentType": 5126,
      "count": 490,
      "max": [3.828829765319824, 1.2577447891235352, 1.4461841583251953],
      "min": [-0.9766684174537659, -10.652351379394531, -1.8788286447525024],
      "type": "VEC3"
    },
    {
      "bufferView": 2,
      "byteOffset": 131784,
      "componentType": 5126,
      "count": 490,
      "max": [1.0, 0.9988784193992615, 1.0],
      "min": [-1.0, -0.9988783597946167, -1.0],
      "type": "VEC3"
    },
    {
      "bufferView": 1,
      "byteOffset": 33136,
      "componentType": 5126,
      "count": 490,
      "max": [3.294674873352051, 1.2529188394546509],
      "min": [-0.5, -10.652351379394531],
      "type": "VEC2"
    },
    {
      "bufferView": 0,
      "byteOffset": 50088,
      "componentType": 5125,
      "count": 531,
      "type": "SCALAR"
    }
  ],
  "asset": {
    "extras": {
      "author": "TechnoCraft (https://sketchfab.com/TechnoCraft)",
      "license": "CC-BY-4.0 (http://creativecommons.org/licenses/by/4.0/)",
      "source": "https://sketchfab.com/3d-models/yi-action-camera-7aa3640350c84c61a9e0600ae7b5fee3",
      "title": "Yi Action Camera"
    },
    "generator": "Sketchfab-12.66.0",
    "version": "2.0"
  },
  "bufferViews": [
    {
      "buffer": 0,
      "byteLength": 52212,
      "name": "floatBufferViews",
      "target": 34963
    },
    {
      "buffer": 0,
      "byteLength": 37056,
      "byteOffset": 52212,
      "byteStride": 8,
      "name": "floatBufferViews",
      "target": 34962
    },
    {
      "buffer": 0,
      "byteLength": 137664,
      "byteOffset": 89268,
      "byteStride": 12,
      "name": "floatBufferViews",
      "target": 34962
    },
    {
      "buffer": 0,
      "byteLength": 51104,
      "byteOffset": 226932,
      "byteStride": 16,
      "name": "floatBufferViews",
      "target": 34962
    }
  ],
  "buffers": [
    {
      "byteLength": 278036,
      "uri": "camera.bin"
    }
  ],
  "images": [
    {
      "uri": "cam_textures/mat_blcack_baseColor.jpeg"
    }
  ],
  "materials": [
    {
      "doubleSided": true,
      "name": "Rectangle001__0",
      "pbrMetallicRoughness": {
        "metallicFactor": 0.0,
        "roughnessFactor": 0.6
      }
    },
    {
      "doubleSided": true,
      "name": "mat_blcack",
      "pbrMetallicRoughness": {
        "baseColorTexture": {
          "index": 0
        },
        "metallicFactor": 0.0,
        "roughnessFactor": 0.8929713596
      }
    },
    {
      "doubleSided": true,
      "name": "Material_230",
      "pbrMetallicRoughness": {
        "baseColorFactor": [0.588235, 0.588235, 0.588235, 1.0],
        "metallicFactor": 0.0,
        "roughnessFactor": 0.8929713596
      }
    },
    {
      "doubleSided": true,
      "name": "Material_37",
      "pbrMetallicRoughness": {
        "baseColorFactor": [
          0.0208221955313342, 0.0208221955313342, 0.0208221955313342, 1.0
        ],
        "metallicFactor": 0.0,
        "roughnessFactor": 0.8349393032
      }
    },
    {
      "doubleSided": true,
      "name": "Material_231",
      "pbrMetallicRoughness": {
        "baseColorFactor": [
          0.04930189883533215, 0.04930189883533215, 0.04930189883533215, 1.0
        ],
        "metallicFactor": 0.0,
        "roughnessFactor": 0.0
      }
    },
    {
      "alphaMode": "BLEND",
      "doubleSided": true,
      "name": "Material_2",
      "pbrMetallicRoughness": {
        "baseColorFactor": [
          0.01650424787611675, 0.01650424787611675, 0.01650424787611675,
          0.028229141235351564
        ],
        "metallicFactor": 0.0,
        "roughnessFactor": 0.8727207794
      }
    },
    {
      "doubleSided": true,
      "name": "Material_39",
      "pbrMetallicRoughness": {
        "baseColorFactor": [0.0, 0.0, 0.0, 1.0],
        "metallicFactor": 0.0,
        "roughnessFactor": 0.0
      }
    }
  ],
  "meshes": [
    {
      "name": "mainbody_mat blcack_0",
      "primitives": [
        {
          "attributes": {
            "COLOR_0": 2,
            "NORMAL": 1,
            "POSITION": 0,
            "TEXCOORD_0": 3
          },
          "indices": 4,
          "material": 1,
          "mode": 4
        }
      ]
    },
    {
      "name": "mainbody_Material #230_0",
      "primitives": [
        {
          "attributes": {
            "COLOR_0": 7,
            "NORMAL": 6,
            "POSITION": 5,
            "TEXCOORD_0": 8
          },
          "indices": 9,
          "material": 2,
          "mode": 4
        }
      ]
    },
    {
      "name": "c_Material #37_0",
      "primitives": [
        {
          "attributes": {
            "NORMAL": 11,
            "POSITION": 10
          },
          "indices": 12,
          "material": 3,
          "mode": 4
        }
      ]
    },
    {
      "name": "Rectangle001__0",
      "primitives": [
        {
          "attributes": {
            "NORMAL": 14,
            "POSITION": 13
          },
          "indices": 15,
          "material": 0,
          "mode": 4
        }
      ]
    },
    {
      "name": "front_Material #37_0",
      "primitives": [
        {
          "attributes": {
            "NORMAL": 17,
            "POSITION": 16,
            "TEXCOORD_0": 18
          },
          "indices": 19,
          "material": 3,
          "mode": 4
        }
      ]
    },
    {
      "name": "lens001 poly_Material #37_0",
      "primitives": [
        {
          "attributes": {
            "NORMAL": 21,
            "POSITION": 20
          },
          "indices": 22,
          "material": 3,
          "mode": 4
        }
      ]
    },
    {
      "name": "Sphere001_Material #231_0",
      "primitives": [
        {
          "attributes": {
            "NORMAL": 24,
            "POSITION": 23,
            "TEXCOORD_0": 25
          },
          "indices": 26,
          "material": 4,
          "mode": 4
        }
      ]
    },
    {
      "name": "Sphere001_Material #37_0",
      "primitives": [
        {
          "attributes": {
            "NORMAL": 28,
            "POSITION": 27,
            "TEXCOORD_0": 29
          },
          "indices": 30,
          "material": 3,
          "mode": 4
        }
      ]
    },
    {
      "name": "back_Material #37_0",
      "primitives": [
        {
          "attributes": {
            "NORMAL": 32,
            "POSITION": 31,
            "TEXCOORD_0": 33
          },
          "indices": 34,
          "material": 3,
          "mode": 4
        }
      ]
    },
    {
      "name": "back glass_Material #2_0",
      "primitives": [
        {
          "attributes": {
            "NORMAL": 36,
            "POSITION": 35
          },
          "indices": 37,
          "material": 5,
          "mode": 4
        }
      ]
    },
    {
      "name": "screen_Material #39_0",
      "primitives": [
        {
          "attributes": {
            "NORMAL": 39,
            "POSITION": 38
          },
          "indices": 40,
          "material": 6,
          "mode": 4
        }
      ]
    },
    {
      "name": "Rectangle002_mat blcack_0",
      "primitives": [
        {
          "attributes": {
            "NORMAL": 42,
            "POSITION": 41,
            "TEXCOORD_0": 43
          },
          "indices": 44,
          "material": 1,
          "mode": 4
        }
      ]
    },
    {
      "name": "Circle003__0",
      "primitives": [
        {
          "attributes": {
            "NORMAL": 46,
            "POSITION": 45
          },
          "indices": 47,
          "material": 0,
          "mode": 4
        }
      ]
    },
    {
      "name": "usb cap holder_mat blcack_0",
      "primitives": [
        {
          "attributes": {
            "NORMAL": 49,
            "POSITION": 48,
            "TEXCOORD_0": 50
          },
          "indices": 51,
          "material": 1,
          "mode": 4
        }
      ]
    }
  ],
  "nodes": [
    {
      "children": [1],
      "matrix": [
        1.0, 0.0, 0.0, 0.0, 0.0, 2.220446049250313e-16, -1.0, 0.0, 0.0, 1.0,
        2.220446049250313e-16, 0.0, 0.0, 0.0, 0.0, 1.0
      ],
      "name": "Sketchfab_model"
    },
    {
      "children": [2],
      "matrix": [
        1.0, 0.0, 0.0, 0.0, 0.0, 0.0, 1.0, 0.0, 0.0, -1.0, 0.0, 0.0, 0.0, 0.0,
        0.0, 1.0
      ],
      "name": "689f4894eb844497b9681bc73753d8c9.fbx"
    },
    {
      "children": [3, 7, 9, 11, 14, 17, 20, 23, 26, 28, 30, 32],
      "name": "RootNode"
    },
    {
      "children": [4],
      "matrix": [
        1.0, 0.0, 0.0, 0.0, 0.0, 0.9999999999999867, 1.6292068494294582e-7, 0.0,
        0.0, -1.6292068494294582e-7, 0.9999999999999867, 0.0, 0.0,
        1.792127477528993e-6, -2.0, 1.0
      ],
      "name": "mainbody"
    },
    {
      "children": [5, 6],
      "matrix": [
        1.0, 0.0, -0.0, 0.0, 0.0, 1.0, 0.0, 0.0, 0.0, 0.0, 1.0, 0.0, 0.0,
        -1.792127477528993e-6, 0.0, 1.0
      ],
      "name": "Object_4"
    },
    {
      "mesh": 0,
      "name": "mainbody_mat blcack_0"
    },
    {
      "mesh": 1,
      "name": "mainbody_Material #230_0"
    },
    {
      "children": [8],
      "matrix": [
        1.0, 0.0, 0.0, 0.0, 0.0, 0.9999999999999867, 1.6292068494294582e-7, 0.0,
        0.0, -1.6292068494294582e-7, 0.9999999999999867, 0.0, 16.5, 0.0, 0.0,
        1.0
      ],
      "name": "c"
    },
    {
      "mesh": 2,
      "name": "c_Material #37_0"
    },
    {
      "children": [10],
      "matrix": [
        1.0, 0.0, 0.0, 0.0, 0.0, 0.999999999999999, 4.371138828673792e-8, 0.0,
        0.0, -4.371138828673792e-8, 0.999999999999999, 0.0, -21.5, 0.0, 0.0, 1.0
      ],
      "name": "Rectangle001"
    },
    {
      "mesh": 3,
      "name": "Rectangle001__0"
    },
    {
      "children": [12],
      "matrix": [
        1.0, 0.0, 0.0, 0.0, 0.0, 0.9999999999999867, 1.6292068494294582e-7, 0.0,
        0.0, -1.6292068494294582e-7, 0.9999999999999867, 0.0, 0.0,
        1.792127477528993e-6, 0.0, 1.0
      ],
      "name": "front"
    },
    {
      "children": [13],
      "matrix": [
        1.0, 0.0, -0.0, 0.0, 0.0, 1.0, 0.0, 0.0, 0.0, 0.0, 1.0, 0.0, 0.0,
        -1.792127477528993e-6, 0.0, 1.0
      ],
      "name": "Object_12"
    },
    {
      "mesh": 4,
      "name": "front_Material #37_0"
    },
    {
      "children": [15],
      "matrix": [
        1.0, 0.0, 0.0, 0.0, 0.0, 2.220446049250313e-16, -1.0, 0.0, 0.0, 1.0,
        2.220446049250313e-16, 0.0, 16.489999771118164, 0.0, 4.003226280212402,
        1.0
      ],
      "name": "lens001 poly"
    },
    {
      "children": [16],
      "matrix": [
        1.0, 0.0, -0.0, 0.0, 0.0, 1.0, 0.0, 0.0, 0.0, 0.0, 1.0, 0.0,
        -16.467239379882813, -1.509267807006836, 0.0, 1.0
      ],
      "name": "Object_15"
    },
    {
      "mesh": 5,
      "name": "lens001 poly_Material #37_0"
    },
    {
      "children": [18, 19],
      "matrix": [
        1.552947535025659, -1.8096810342462856e-10, -0.004466622192400614, 0.0,
        -2.4981825223106874e-10, 1.5545744895934985, -1.498409776316881e-7, 0.0,
        0.0035022406217504964, 1.1736664471610155e-7, 1.2176530063069937, 0.0,
        16.472482681274414, 0.2177255004644394, -1.8800305128097534, 1.0
      ],
      "name": "Sphere001"
    },
    {
      "mesh": 6,
      "name": "Sphere001_Material #231_0"
    },
    {
      "mesh": 7,
      "name": "Sphere001_Material #37_0"
    },
    {
      "children": [21],
      "matrix": [
        1.0, 0.0, 0.0, 0.0, 0.0, 0.9999999999999867, 1.6292068494294582e-7, 0.0,
        0.0, -1.6292068494294582e-7, 0.9999999999999867, 0.0, 0.0,
        1.792127477528993e-6, -21.0, 1.0
      ],
      "name": "back"
    },
    {
      "children": [22],
      "matrix": [
        1.0, 0.0, -0.0, 0.0, 0.0, 1.0, 0.0, 0.0, 0.0, 0.0, 1.0, 0.0, 0.0,
        -1.792127477528993e-6, 0.0, 1.0
      ],
      "name": "Object_21"
    },
    {
      "mesh": 8,
      "name": "back_Material #37_0"
    },
    {
      "children": [24],
      "matrix": [
        1.0, 0.0, 0.0, 0.0, 0.0, 0.9999999999999867, 1.6292068494294582e-7, 0.0,
        0.0, -1.6292068494294582e-7, 0.9999999999999867, 0.0, 0.0,
        1.792127477528993e-6, -21.510000228881836, 1.0
      ],
      "name": "back glass"
    },
    {
      "children": [25],
      "matrix": [
        1.0, 0.0, -0.0, 0.0, 0.0, 1.0, 0.0, 0.0, 0.0, 0.0, 1.0, 0.0, 0.0,
        -1.792127477528993e-6, 0.0, 1.0
      ],
      "name": "Object_24"
    },
    {
      "mesh": 9,
      "name": "back glass_Material #2_0"
    },
    {
      "children": [27],
      "matrix": [
        1.0, 0.0, 0.0, 0.0, 0.0, 0.999999999999999, 4.371138828673792e-8, 0.0,
        0.0, -4.371138828673792e-8, 0.999999999999999, 0.0, 3.1077880859375,
        0.0, -21.5, 1.0
      ],
      "name": "screen"
    },
    {
      "mesh": 10,
      "name": "screen_Material #39_0"
    },
    {
      "children": [29],
      "matrix": [
        3.651776523949657e-6, -2.220446049250313e-16, 0.9999999999933323, 0.0,
        0.9990061244000528, 0.044578472776583056, -3.648147112437705e-6, 0.0,
        -0.04457847277628585, 0.9990061244067139, 1.6279062049374817e-7, 0.0,
        -13.0, 21.362455368041992, -12.989999771118164, 1.0
      ],
      "name": "Rectangle002"
    },
    {
      "mesh": 11,
      "name": "Rectangle002_mat blcack_0"
    },
    {
      "children": [31],
      "matrix": [
        6.0359625420058904e-6, -1.1102230246251565e-16, 0.9999999999817837, 0.0,
        0.9996318925779717, 0.02713517501638805, -6.033740659569956e-6, 0.0,
        -0.02713517501589378, 0.9996318925961813, 1.6378690002758754e-7, 0.0,
        -9.0, 21.000219345092773, -12.989999771118164, 1.0
      ],
      "name": "Circle003"
    },
    {
      "mesh": 12,
      "name": "Circle003__0"
    },
    {
      "children": [33],
      "matrix": [
        4.371138784264872e-8, 2.6469779601696886e-23, -0.999999999999999, 0.0,
        2.8212997443249143e-7, 0.9999999999999603, 1.2332292736333902e-14, 0.0,
        0.9999999999999593, -2.8212997443249165e-7, 4.371138784264872e-8, 0.0,
        30.816787719726563, -6.327647686004639, -4.071249008178711, 1.0
      ],
      "name": "usb cap holder"
    },
    {
      "mesh": 13,
      "name": "usb cap holder_mat blcack_0"
    }
  ],
  "samplers": [
    {
      "magFilter": 9729,
      "minFilter": 9987,
      "wrapS": 10497,
      "wrapT": 10497
    }
  ],
  "scene": 0,
  "scenes": [
    {
      "name": "Sketchfab_Scene",
      "nodes": [0]
    }
  ],
  "textures": [
    {
      "sampler": 0,
      "source": 0
    }
  ]
}
