{
  "accessors": [
    {
      "bufferView": 2,
      "componentType": 5126,
      "count": 253,
      "max": [1.0812757015228271, 4.584280967712402, -0.3391638398170471],
      "min": [-1.0812757015228271, 3.018183633685112e-6, -0.39997774362564087],
      "type": "VEC3"
    },
    {
      "bufferView": 2,
      "byteOffset": 3036,
      "componentType": 5126,
      "count": 253,
      "max": [1.0, 0.9510565400123596, 1.1326261528665782e-7],
      "min": [-1.0, -0.9510563015937805, -1.0],
      "type": "VEC3"
    },
    {
      "bufferView": 1,
      "componentType": 5126,
      "count": 253,
      "max": [0.6168489456176758, 0.7709730863571167],
      "min": [0.26258793473243713, 0.004717223346233368],
      "type": "VEC2"
    },
    {
      "bufferView": 0,
      "componentType": 5125,
      "count": 468,
      "type": "SCALAR"
    },
    {
      "bufferView": 2,
      "byteOffset": 6072,
      "componentType": 5126,
      "count": 957,
      "max": [1.0812757015228271, 5.337855339050293, 0.3412872552871704],
      "min": [-1.0812757015228271, 3.018183633685112e-6, -0.4175834655761719],
      "type": "VEC3"
    },
    {
      "bufferView": 2,
      "byteOffset": 17556,
      "componentType": 5126,
      "count": 957,
      "max": [0.9999763369560242, 1.0, 0.999686062335968],
      "min": [-0.9999763369560242, -0.9998699426651001, -1.0],
      "type": "VEC3"
    },
    {
      "bufferView": 1,
      "byteOffset": 2024,
      "componentType": 5126,
      "count": 957,
      "max": [0.995282769203186, 0.9578990340232849],
      "min": [0.016002565622329712, 0.00545501708984375],
      "type": "VEC2"
    },
    {
      "bufferView": 0,
      "byteOffset": 1872,
      "componentType": 5125,
      "count": 1428,
      "type": "SCALAR"
    },
    {
      "bufferView": 2,
      "byteOffset": 29040,
      "componentType": 5126,
      "count": 182,
      "max": [0.14801478385925293, 4.584171772003174, 0.26379159092903137],
      "min": [-0.14801478385925293, 2.6786882877349854, -0.3999776840209961],
      "type": "VEC3"
    },
    {
      "bufferView": 2,
      "byteOffset": 31224,
      "componentType": 5126,
      "count": 182,
      "max": [0.9972326159477234, 0.9822661280632019, 0.9998355507850647],
      "min": [-0.9972326755523682, -0.19021207094192505, -0.03574233502149582],
      "type": "VEC3"
    },
    {
      "bufferView": 1,
      "byteOffset": 9680,
      "componentType": 5126,
      "count": 182,
      "max": [0.9883388876914978, 0.6941688060760498],
      "min": [0.15958072245121002, 0.0005626678466796875],
      "type": "VEC2"
    },
    {
      "bufferView": 0,
      "byteOffset": 7584,
      "componentType": 5125,
      "count": 246,
      "type": "SCALAR"
    },
    {
      "bufferView": 2,
      "byteOffset": 33408,
      "componentType": 5126,
      "count": 241,
      "max": [0.8882410526275635, 2.562208414077759, 0.25394314527511597],
      "min": [-0.8882410526275635, 0.1984548270702362, -0.3391638398170471],
      "type": "VEC3"
    },
    {
      "bufferView": 2,
      "byteOffset": 36300,
      "componentType": 5126,
      "count": 241,
      "max": [1.0, 0.9999217987060547, 1.0],
      "min": [-1.0, -0.999924898147583, -0.9995830655097961],
      "type": "VEC3"
    },
    {
      "bufferView": 1,
      "byteOffset": 11136,
      "componentType": 5126,
      "count": 241,
      "max": [0.9430645704269409, 0.9065237045288086],
      "min": [0.004717230796813965, 0.004717230796813965],
      "type": "VEC2"
    },
    {
      "bufferView": 0,
      "byteOffset": 8568,
      "componentType": 5125,
      "count": 384,
      "type": "SCALAR"
    },
    {
      "bufferView": 2,
      "byteOffset": 39192,
      "componentType": 5126,
      "count": 140,
      "max": [0.15253622829914093, 4.555732250213623, -0.3459472060203552],
      "min": [-0.15253622829914093, 2.176811933517456, -0.41936472058296204],
      "type": "VEC3"
    },
    {
      "bufferView": 2,
      "byteOffset": 40872,
      "componentType": 5126,
      "count": 140,
      "max": [1.0, 0.04550818353891373, 0.0001576253998791799],
      "min": [-1.0, -0.999984085559845, -1.0],
      "type": "VEC3"
    },
    {
      "bufferView": 1,
      "byteOffset": 13064,
      "componentType": 5126,
      "count": 140,
      "max": [0.9951625466346741, 0.8059664964675903],
      "min": [0.2996804714202881, 0.004717111587524414],
      "type": "VEC2"
    },
    {
      "bufferView": 0,
      "byteOffset": 10104,
      "componentType": 5125,
      "count": 228,
      "type": "SCALAR"
    },
    {
      "bufferView": 2,
      "byteOffset": 42552,
      "componentType": 5126,
      "count": 126,
      "max": [0.16710996627807617, 5.337855339050293, -0.10684571415185928],
      "min": [-0.16710996627807617, 1.0733174085617065, -0.43409815430641174],
      "type": "VEC3"
    },
    {
      "bufferView": 2,
      "byteOffset": 44064,
      "componentType": 5126,
      "count": 126,
      "max": [0.9999349117279053, 1.0, 0.14246565103530884],
      "min": [-0.9999982118606567, -1.0, -1.0],
      "type": "VEC3"
    },
    {
      "bufferView": 1,
      "byteOffset": 14184,
      "componentType": 5126,
      "count": 126,
      "max": [0.8401801586151123, 0.846626877784729],
      "min": [0.26258790493011475, 0.004717111587524414],
      "type": "VEC2"
    },
    {
      "bufferView": 0,
      "byteOffset": 11016,
      "componentType": 5125,
      "count": 198,
      "type": "SCALAR"
    },
    {
      "bufferView": 2,
      "byteOffset": 45576,
      "componentType": 5126,
      "count": 1128,
      "max": [0.26308906078338623, 5.232115268707275, -0.007143191993236542],
      "min": [-0.26308906078338623, 4.696418285369873, -0.3250345289707184],
      "type": "VEC3"
    },
    {
      "bufferView": 2,
      "byteOffset": 59112,
      "componentType": 5126,
      "count": 1128,
      "max": [0.9999986886978149, 0.969623863697052, 0.969645082950592],
      "min": [-0.9999986886978149, -0.9696428775787354, -0.9696450233459473],
      "type": "VEC3"
    },
    {
      "bufferView": 1,
      "byteOffset": 15192,
      "componentType": 5126,
      "count": 1128,
      "max": [0.8984502553939819, 0.8984436988830566],
      "min": [0.09695553779602051, 0.34372541308403015],
      "type": "VEC2"
    },
    {
      "bufferView": 0,
      "byteOffset": 11808,
      "componentType": 5125,
      "count": 1728,
      "type": "SCALAR"
    },
    {
      "bufferView": 2,
      "byteOffset": 72648,
      "componentType": 5126,
      "count": 756,
      "max": [10.736330032348633, 2.9816975593566895, -15.597311019897461],
      "min": [-10.736330032348633, 0.5783061385154724, -35.967769622802734],
      "type": "VEC3"
    },
    {
      "bufferView": 2,
      "byteOffset": 81720,
      "componentType": 5126,
      "count": 756,
      "max": [1.0, 0.9999986886978149, 1.0],
      "min": [-1.0, -0.9999722242355347, -0.8660256862640381],
      "type": "VEC3"
    },
    {
      "bufferView": 1,
      "byteOffset": 24216,
      "componentType": 5126,
      "count": 756,
      "max": [1.0, 1.0],
      "min": [-8.940696716308594e-8, 0.01000000536441803],
      "type": "VEC2"
    },
    {
      "bufferView": 0,
      "byteOffset": 18720,
      "componentType": 5125,
      "count": 1224,
      "type": "SCALAR"
    },
    {
      "bufferView": 2,
      "byteOffset": 90792,
      "componentType": 5126,
      "count": 140,
      "max": [0.6489680409431458, 0.41051632165908813, 2.2837724685668945],
      "min": [0.138502836227417, 0.3755747079849243, 1.2271779775619507],
      "type": "VEC3"
    },
    {
      "bufferView": 2,
      "byteOffset": 92472,
      "componentType": 5126,
      "count": 140,
      "max": [0.9960960745811462, 1.0, 0.9983453750610352],
      "min": [-0.9999954700469971, -0.057909153401851654, -0.9999139308929443],
      "type": "VEC3"
    },
    {
      "bufferView": 1,
      "byteOffset": 30264,
      "componentType": 5126,
      "count": 140,
      "max": [1.0, 1.0],
      "min": [0.0, 0.0],
      "type": "VEC2"
    },
    {
      "bufferView": 0,
      "byteOffset": 23616,
      "componentType": 5125,
      "count": 210,
      "type": "SCALAR"
    }
  ],
  "asset": {
    "extras": {
      "author": "DogeBites (https://sketchfab.com/DogeBites)",
      "license": "CC-BY-4.0 (http://creativecommons.org/licenses/by/4.0/)",
      "source": "https://sketchfab.com/3d-models/low-poly-acoustic-guitar-e70c949888e74e05af290420b8e39af5",
      "title": "Low-Poly Acoustic Guitar"
    },
    "generator": "Sketchfab-14.38.0",
    "version": "2.0"
  },
  "bufferViews": [
    {
      "buffer": 0,
      "byteLength": 24456,
      "name": "floatBufferViews",
      "target": 34963
    },
    {
      "buffer": 0,
      "byteLength": 31384,
      "byteOffset": 24456,
      "byteStride": 8,
      "name": "floatBufferViews",
      "target": 34962
    },
    {
      "buffer": 0,
      "byteLength": 94152,
      "byteOffset": 55840,
      "byteStride": 12,
      "name": "floatBufferViews",
      "target": 34962
    }
  ],
  "buffers": [
    {
      "byteLength": 149992,
      "uri": "guitar.bin"
    }
  ],
  "materials": [
    {
      "doubleSided": true,
      "name": "Wood",
      "pbrMetallicRoughness": {
        "baseColorFactor": [0.814041, 0.316923, 0.129555, 1.0],
        "metallicFactor": 0.0,
        "roughnessFactor": 0.3
      }
    },
    {
      "doubleSided": true,
      "name": "Wood2",
      "pbrMetallicRoughness": {
        "baseColorFactor": [0.0668063, 0.018465, 0.00473166, 1.0],
        "metallicFactor": 0.0,
        "roughnessFactor": 0.3
      }
    },
    {
      "doubleSided": true,
      "name": "Wood3",
      "pbrMetallicRoughness": {
        "baseColorFactor": [0.190158, 0.062229, 0.0217906, 1.0],
        "metallicFactor": 0.0,
        "roughnessFactor": 0.6
      }
    },
    {
      "doubleSided": true,
      "name": "Inside",
      "pbrMetallicRoughness": {
        "baseColorFactor": [0.207882, 0.106566, 0.0505304, 1.0],
        "metallicFactor": 0.0,
        "roughnessFactor": 0.7
      }
    },
    {
      "doubleSided": true,
      "name": "Grif",
      "pbrMetallicRoughness": {
        "baseColorFactor": [0.0373837, 0.0373837, 0.0373837, 1.0],
        "metallicFactor": 0.0,
        "roughnessFactor": 0.7
      }
    },
    {
      "doubleSided": true,
      "name": "Details",
      "pbrMetallicRoughness": {
        "baseColorFactor": [0.8, 0.8, 0.8, 1.0],
        "metallicFactor": 0.0,
        "roughnessFactor": 0.5
      }
    },
    {
      "doubleSided": true,
      "name": "Metal",
      "pbrMetallicRoughness": {
        "baseColorFactor": [0.281009, 0.281009, 0.281009, 1.0],
        "metallicFactor": 0.3,
        "roughnessFactor": 0.1
      }
    },
    {
      "doubleSided": true,
      "name": "PlaneMaterial",
      "pbrMetallicRoughness": {
        "baseColorFactor": [0.0444542, 0.0158248, 0.0041138600000000004, 1.0],
        "metallicFactor": 0.0,
        "roughnessFactor": 0.1
      }
    }
  ],
  "meshes": [
    {
      "name": "Object_0",
      "primitives": [
        {
          "attributes": {
            "NORMAL": 1,
            "POSITION": 0,
            "TEXCOORD_0": 2
          },
          "indices": 3,
          "material": 0,
          "mode": 4
        }
      ]
    },
    {
      "name": "Object_1",
      "primitives": [
        {
          "attributes": {
            "NORMAL": 5,
            "POSITION": 4,
            "TEXCOORD_0": 6
          },
          "indices": 7,
          "material": 1,
          "mode": 4
        }
      ]
    },
    {
      "name": "Object_2",
      "primitives": [
        {
          "attributes": {
            "NORMAL": 9,
            "POSITION": 8,
            "TEXCOORD_0": 10
          },
          "indices": 11,
          "material": 2,
          "mode": 4
        }
      ]
    },
    {
      "name": "Object_3",
      "primitives": [
        {
          "attributes": {
            "NORMAL": 13,
            "POSITION": 12,
            "TEXCOORD_0": 14
          },
          "indices": 15,
          "material": 3,
          "mode": 4
        }
      ]
    },
    {
      "name": "Object_4",
      "primitives": [
        {
          "attributes": {
            "NORMAL": 17,
            "POSITION": 16,
            "TEXCOORD_0": 18
          },
          "indices": 19,
          "material": 4,
          "mode": 4
        }
      ]
    },
    {
      "name": "Object_5",
      "primitives": [
        {
          "attributes": {
            "NORMAL": 21,
            "POSITION": 20,
            "TEXCOORD_0": 22
          },
          "indices": 23,
          "material": 5,
          "mode": 4
        }
      ]
    },
    {
      "name": "Object_6",
      "primitives": [
        {
          "attributes": {
            "NORMAL": 25,
            "POSITION": 24,
            "TEXCOORD_0": 26
          },
          "indices": 27,
          "material": 6,
          "mode": 4
        }
      ]
    },
    {
      "name": "Object_7",
      "primitives": [
        {
          "attributes": {
            "NORMAL": 29,
            "POSITION": 28,
            "TEXCOORD_0": 30
          },
          "indices": 31,
          "material": 6,
          "mode": 4
        }
      ]
    },
    {
      "name": "Object_8",
      "primitives": [
        {
          "attributes": {
            "NORMAL": 33,
            "POSITION": 32,
            "TEXCOORD_0": 34
          },
          "indices": 35,
          "material": 7,
          "mode": 4
        }
      ]
    }
  ],
  "nodes": [
    {
      "children": [1],
      "matrix": [
        1.0, 0.0, 0.0, 0.0, 0.0, 2.220446049250313e-16, -1.0, 0.0, 0.0, 1.0,
        2.220446049250313e-16, 0.0, 0.0, 0.0, 0.0, 1.0
      ],
      "name": "Sketchfab_model"
    },
    {
      "children": [2],
      "name": "root"
    },
    {
      "children": [3, 11, 13],
      "matrix": [
        1.0, 0.0, 0.0, 0.0, 0.0, 2.220446049250313e-16, 1.0, 0.0, 0.0, -1.0,
        2.220446049250313e-16, 0.0, 0.0, 0.0, 0.0, 1.0
      ],
      "name": "GLTF_SceneRootNode"
    },
    {
      "children": [4, 5, 6, 7, 8, 9, 10],
      "name": "Guitar_0"
    },
    {
      "mesh": 0,
      "name": "Object_4"
    },
    {
      "mesh": 1,
      "name": "Object_5"
    },
    {
      "mesh": 2,
      "name": "Object_6"
    },
    {
      "mesh": 3,
      "name": "Object_7"
    },
    {
      "mesh": 4,
      "name": "Object_8"
    },
    {
      "mesh": 5,
      "name": "Object_9"
    },
    {
      "mesh": 6,
      "name": "Object_10"
    },
    {
      "children": [12],
      "matrix": [
        0.012193950824439526, 0.0, 0.0, 0.0, 0.0, 1.7478820085525513, 0.0, 0.0,
        0.0, 0.0, 0.012193950824439526, 0.0, 0.0, 0.0, 0.0, 1.0
      ],
      "name": "Strings_2"
    },
    {
      "mesh": 7,
      "name": "Object_12"
    },
    {
      "children": [14],
      "matrix": [
        -1.0, -0.0, 0.0, -0.0, -0.0, 8.429369480200677e-8, -0.9999999999999966,
        0.0, 0.0, 0.9999999999999966, 8.429369480200677e-8, 0.0, 0.0, 0.0, 0.0,
        1.0
      ],
      "name": "Plane_3"
    },
    {
      "mesh": 8,
      "name": "Object_14"
    }
  ],
  "scene": 0,
  "scenes": [
    {
      "name": "Sketchfab_Scene",
      "nodes": [0]
    }
  ]
}
