{
  "accessors": [
    {
      "bufferView": 2,
      "componentType": 5126,
      "count": 138,
      "max": [
        0.8999999761581421,
        1.2000000476837158,
        3.4000000953674316
      ],
      "min": [
        -0.8999999761581421,
        0.20000000298023224,
        -1.9518355131149292
      ],
      "type": "VEC3"
    },
    {
      "bufferView": 2,
      "byteOffset": 1656,
      "componentType": 5126,
      "count": 138,
      "max": [
        0.999670147895813,
        1.0,
        0.8562806844711304
      ],
      "min": [
        -0.9996702075004578,
        -1.0,
        -1.0
      ],
      "type": "VEC3"
    },
    {
      "bufferView": 1,
      "componentType": 5126,
      "count": 138,
      "max": [
        0.75,
        0.875
      ],
      "min": [
        0.25,
        0.375
      ],
      "type": "VEC2"
    },
    {
      "bufferView": 0,
      "componentType": 5125,
      "count": 240,
      "type": "SCALAR"
    },
    {
      "bufferView": 2,
      "byteOffset": 3312,
      "componentType": 5126,
      "count": 116,
      "max": [
        1.2017158269882202,
        1.2000000476837158,
        -0.07683506608009338
      ],
      "min": [
        -1.2017158269882202,
        0.1977720409631729,
        -2.6829748153686523
      ],
      "type": "VEC3"
    },
    {
      "bufferView": 2,
      "byteOffset": 4704,
      "componentType": 5126,
      "count": 116,
      "max": [
        0.947063684463501,
        1.0,
        0.9863220453262329
      ],
      "min": [
        -0.947063684463501,
        -1.0,
        -0.7017660140991211
      ],
      "type": "VEC3"
    },
    {
      "bufferView": 1,
      "byteOffset": 1104,
      "componentType": 5126,
      "count": 116,
      "max": [
        0.625,
        0.7366456985473633
      ],
      "min": [
        0.4715763330459595,
        0.5
      ],
      "type": "VEC2"
    },
    {
      "bufferView": 0,
      "byteOffset": 960,
      "componentType": 5125,
      "count": 192,
      "type": "SCALAR"
    },
    {
      "bufferView": 2,
      "byteOffset": 6096,
      "componentType": 5126,
      "count": 12532,
      "max": [
        0.9263447523117065,
        1.293273687362671,
        3.4174137115478516
      ],
      "min": [
        -0.9263446927070618,
        0.18992353975772858,
        -1.9624402523040771
      ],
      "type": "VEC3"
    },
    {
      "bufferView": 2,
      "byteOffset": 156480,
      "componentType": 5126,
      "count": 12532,
      "max": [
        1.0,
        1.0,
        1.0
      ],
      "min": [
        -1.0,
        -1.0,
        -1.0
      ],
      "type": "VEC3"
    },
    {
      "bufferView": 1,
      "byteOffset": 2032,
      "componentType": 5126,
      "count": 12532,
      "max": [
        0.7499735951423645,
        0.8750289678573608
      ],
      "min": [
        0.25,
        0.375
      ],
      "type": "VEC2"
    },
    {
      "bufferView": 0,
      "byteOffset": 1728,
      "componentType": 5125,
      "count": 18780,
      "type": "SCALAR"
    },
    {
      "bufferView": 2,
      "byteOffset": 306864,
      "componentType": 5126,
      "count": 4260,
      "max": [
        1.2172192335128784,
        1.2105045318603516,
        -0.03135456517338753
      ],
      "min": [
        -1.2172191143035889,
        0.1850566267967224,
        -2.7028467655181885
      ],
      "type": "VEC3"
    },
    {
      "bufferView": 2,
      "byteOffset": 357984,
      "componentType": 5126,
      "count": 4260,
      "max": [
        0.9825806021690369,
        0.9999876618385315,
        0.9879896640777588
      ],
      "min": [
        -0.9825794100761414,
        -0.9998677372932434,
        -0.9986316561698914
      ],
      "type": "VEC3"
    },
    {
      "bufferView": 1,
      "byteOffset": 102288,
      "componentType": 5126,
      "count": 4260,
      "max": [
        0.6250001192092896,
        0.7364376187324524
      ],
      "min": [
        0.4715840816497803,
        0.49999988079071045
      ],
      "type": "VEC2"
    },
    {
      "bufferView": 0,
      "byteOffset": 76848,
      "componentType": 5125,
      "count": 6384,
      "type": "SCALAR"
    },
    {
      "bufferView": 2,
      "byteOffset": 409104,
      "componentType": 5126,
      "count": 152,
      "max": [
        0.8175420165061951,
        1.2044470310211182,
        2.653643846511841
      ],
      "min": [
        -0.8175420165061951,
        0.5460498332977295,
        -1.6866340637207031
      ],
      "type": "VEC3"
    },
    {
      "bufferView": 2,
      "byteOffset": 410928,
      "componentType": 5126,
      "count": 152,
      "max": [
        0.9434268474578857,
        1.0,
        0.30273881554603577
      ],
      "min": [
        -0.9434268474578857,
        0.3297496736049652,
        -0.7704925537109375
      ],
      "type": "VEC3"
    },
    {
      "bufferView": 1,
      "byteOffset": 136368,
      "componentType": 5126,
      "count": 152,
      "max": [
        0.75,
        0.7235075235366821
      ],
      "min": [
        0.5382668972015381,
        0.375
      ],
      "type": "VEC2"
    },
    {
      "bufferView": 0,
      "byteOffset": 102384,
      "componentType": 5125,
      "count": 300,
      "type": "SCALAR"
    },
    {
      "bufferView": 2,
      "byteOffset": 412752,
      "componentType": 5126,
      "count": 384,
      "max": [
        0.8675602078437805,
        0.3077408969402313,
        3.1315219402313232
      ],
      "min": [
        -0.8675602674484253,
        0.28145864605903625,
        3.05704402923584
      ],
      "type": "VEC3"
    },
    {
      "bufferView": 2,
      "byteOffset": 417360,
      "componentType": 5126,
      "count": 384,
      "max": [
        0.9667083621025085,
        0.9676396250724792,
        0.9623538255691528
      ],
      "min": [
        -0.9315390586853027,
        -0.9678264260292053,
        -0.9460414052009583
      ],
      "type": "VEC3"
    },
    {
      "bufferView": 1,
      "byteOffset": 137584,
      "componentType": 5126,
      "count": 384,
      "max": [
        0.5075182914733887,
        0.8382527232170105
      ],
      "min": [
        0.3749999403953552,
        0.7574002146720886
      ],
      "type": "VEC2"
    },
    {
      "bufferView": 0,
      "byteOffset": 103584,
      "componentType": 5125,
      "count": 528,
      "type": "SCALAR"
    },
    {
      "bufferView": 2,
      "byteOffset": 421968,
      "componentType": 5126,
      "count": 832,
      "max": [
        1.1664519309997559,
        1.1954766511917114,
        -1.6294018030166626
      ],
      "min": [
        -1.1664519309997559,
        0.20384417474269867,
        -2.696575164794922
      ],
      "type": "VEC3"
    },
    {
      "bufferView": 2,
      "byteOffset": 431952,
      "componentType": 5126,
      "count": 832,
      "max": [
        0.9964457750320435,
        1.0,
        1.0
      ],
      "min": [
        -0.9964457750320435,
        -1.0,
        -1.0
      ],
      "type": "VEC3"
    },
    {
      "bufferView": 1,
      "byteOffset": 140656,
      "componentType": 5126,
      "count": 832,
      "max": [
        0.5022884011268616,
        0.7922478914260864
      ],
      "min": [
        0.3749999701976776,
        0.7573935985565186
      ],
      "type": "VEC2"
    },
    {
      "bufferView": 0,
      "byteOffset": 105696,
      "componentType": 5125,
      "count": 1128,
      "type": "SCALAR"
    }
  ],
  "asset": {
    "extras": {
      "author": "Unity Fan youtube channel (https://sketchfab.com/unityfan777)",
      "license": "CC-BY-4.0 (http://creativecommons.org/licenses/by/4.0/)",
      "source": "https://sketchfab.com/3d-models/sci-fi-vehicle-012-public-domain-cc0-d69b22aa84304ecb8098138baa67c8dd",
      "title": "Sci-Fi Vehicle 012 - public domain (CC0)"
    },
    "generator": "Sketchfab-14.64.0",
    "version": "2.0"
  },
  "bufferViews": [
    {
      "buffer": 0,
      "byteLength": 110208,
      "name": "floatBufferViews",
      "target": 34963
    },
    {
      "buffer": 0,
      "byteLength": 147312,
      "byteOffset": 110208,
      "byteStride": 8,
      "name": "floatBufferViews",
      "target": 34962
    },
    {
      "buffer": 0,
      "byteLength": 441936,
      "byteOffset": 257520,
      "byteStride": 12,
      "name": "floatBufferViews",
      "target": 34962
    }
  ],
  "buffers": [
    {
      "byteLength": 699456,
      "uri": "scene.bin"
    }
  ],
  "materials": [
    {
      "doubleSided": true,
      "name": "blocker",
      "pbrMetallicRoughness": {
        "baseColorFactor": [
          0.0,
          0.0,
          0.0,
          1.0
        ],
        "metallicFactor": 0.0,
        "roughnessFactor": 0.5
      }
    },
    {
      "doubleSided": true,
      "name": "body",
      "pbrMetallicRoughness": {
        "baseColorFactor": [
          0.8,
          0.8,
          0.8,
          1.0
        ],
        "roughnessFactor": 0.21451610941879626
      }
    },
    {
      "doubleSided": true,
      "name": "glass",
      "pbrMetallicRoughness": {
        "baseColorFactor": [
          0.0,
          0.0,
          0.0,
          1.0
        ],
        "metallicFactor": 0.0,
        "roughnessFactor": 0.0
      }
    },
    {
      "doubleSided": true,
      "emissiveFactor": [
        1.0,
        0.6665199999999998,
        0.3595319999999998
      ],
      "name": "headlight"
    },
    {
      "doubleSided": true,
      "emissiveFactor": [
        1.0,
        0.001718569999999997,
        0.0
      ],
      "name": "tailight",
      "pbrMetallicRoughness": {
        "baseColorFactor": [
          1.0,
          0.0,
          0.0,
          1.0
        ]
      }
    }
  ],
  "meshes": [
    {
      "name": "Object_0",
      "primitives": [
        {
          "attributes": {
            "NORMAL": 1,
            "POSITION": 0,
            "TEXCOORD_0": 2
          },
          "indices": 3,
          "material": 0,
          "mode": 4
        }
      ]
    },
    {
      "name": "Object_1",
      "primitives": [
        {
          "attributes": {
            "NORMAL": 5,
            "POSITION": 4,
            "TEXCOORD_0": 6
          },
          "indices": 7,
          "material": 0,
          "mode": 4
        }
      ]
    },
    {
      "name": "Object_2",
      "primitives": [
        {
          "attributes": {
            "NORMAL": 9,
            "POSITION": 8,
            "TEXCOORD_0": 10
          },
          "indices": 11,
          "material": 1,
          "mode": 4
        }
      ]
    },
    {
      "name": "Object_3",
      "primitives": [
        {
          "attributes": {
            "NORMAL": 13,
            "POSITION": 12,
            "TEXCOORD_0": 14
          },
          "indices": 15,
          "material": 1,
          "mode": 4
        }
      ]
    },
    {
      "name": "Object_4",
      "primitives": [
        {
          "attributes": {
            "NORMAL": 17,
            "POSITION": 16,
            "TEXCOORD_0": 18
          },
          "indices": 19,
          "material": 2,
          "mode": 4
        }
      ]
    },
    {
      "name": "Object_5",
      "primitives": [
        {
          "attributes": {
            "NORMAL": 21,
            "POSITION": 20,
            "TEXCOORD_0": 22
          },
          "indices": 23,
          "material": 3,
          "mode": 4
        }
      ]
    },
    {
      "name": "Object_6",
      "primitives": [
        {
          "attributes": {
            "NORMAL": 25,
            "POSITION": 24,
            "TEXCOORD_0": 26
          },
          "indices": 27,
          "material": 4,
          "mode": 4
        }
      ]
    }
  ],
  "nodes": [
    {
      "children": [
        1
      ],
      "matrix": [
        1.0,
        0.0,
        0.0,
        0.0,
        0.0,
        2.220446049250313e-16,
        -1.0,
        0.0,
        0.0,
        1.0,
        2.220446049250313e-16,
        0.0,
        0.0,
        0.0,
        0.0,
        1.0
      ],
      "name": "Sketchfab_model"
    },
    {
      "children": [
        2
      ],
      "name": "root"
    },
    {
      "children": [
        3,
        5,
        7,
        9,
        11,
        13,
        15
      ],
      "matrix": [
        1.0,
        0.0,
        0.0,
        0.0,
        0.0,
        2.220446049250313e-16,
        1.0,
        0.0,
        0.0,
        -1.0,
        2.220446049250313e-16,
        0.0,
        0.0,
        0.0,
        0.0,
        1.0
      ],
      "name": "GLTF_SceneRootNode"
    },
    {
      "children": [
        4
      ],
      "name": "Cube_2"
    },
    {
      "mesh": 0,
      "name": "Object_4"
    },
    {
      "children": [
        6
      ],
      "name": "Cube.001_3"
    },
    {
      "mesh": 1,
      "name": "Object_6"
    },
    {
      "children": [
        8
      ],
      "name": "Cube.002_4"
    },
    {
      "mesh": 2,
      "name": "Object_8"
    },
    {
      "children": [
        10
      ],
      "name": "Cube.003_5"
    },
    {
      "mesh": 3,
      "name": "Object_10"
    },
    {
      "children": [
        12
      ],
      "name": "Cube.004_6"
    },
    {
      "mesh": 4,
      "name": "Object_12"
    },
    {
      "children": [
        14
      ],
      "name": "Cube.005_7"
    },
    {
      "mesh": 5,
      "name": "Object_14"
    },
    {
      "children": [
        16
      ],
      "name": "Cube.006_8"
    },
    {
      "mesh": 6,
      "name": "Object_16"
    }
  ],
  "scene": 0,
  "scenes": [
    {
      "name": "Sketchfab_Scene",
      "nodes": [
        0
      ]
    }
  ]
}
